<svg width="18" height="18" viewBox="0 0 18 18" fill="none" xmlns="http://www.w3.org/2000/svg">
<path d="M6.33333 10.9399V12.2733M9 8.27327V12.2733M11.6667 5.60661V12.2733M6.2 14.9399H11.8C12.9201 14.9399 13.4802 14.9399 13.908 14.722C14.2843 14.5302 14.5903 14.2242 14.782 13.8479C15 13.4201 15 12.86 15 11.7399V6.13994C15 5.01984 15 4.45978 14.782 4.03196C14.5903 3.65564 14.2843 3.34968 13.908 3.15793C13.4802 2.93994 12.9201 2.93994 11.8 2.93994H6.2C5.0799 2.93994 4.51984 2.93994 4.09202 3.15793C3.71569 3.34968 3.40973 3.65564 3.21799 4.03196C3 4.45978 3 5.01984 3 6.13994V11.7399C3 12.86 3 13.4201 3.21799 13.8479C3.40973 14.2242 3.71569 14.5302 4.09202 14.722C4.51984 14.9399 5.0799 14.9399 6.2 14.9399Z" stroke="#4B5563" stroke-width="1.7" stroke-linecap="round" stroke-linejoin="round"/>
</svg>
