<svg width="700" height="391" viewBox="0 0 700 391" fill="none" xmlns="http://www.w3.org/2000/svg">
<path d="M1.25781 15V5.13574H7.24609V6.24316H2.48828V9.63379H6.85645V10.7275H2.48828V15H1.25781ZM12.127 15.1299C10.0215 15.1299 8.75 13.6533 8.75 11.3428V11.3359C8.75 9.05957 10.0488 7.50098 12.0518 7.50098C14.0547 7.50098 15.2715 8.99121 15.2715 11.1924V11.6572H9.9668C10.001 13.1816 10.8418 14.0703 12.1543 14.0703C13.1523 14.0703 13.7676 13.5986 13.9658 13.1543L13.9932 13.0928H15.1826L15.1689 13.1475C14.916 14.1455 13.8633 15.1299 12.127 15.1299ZM12.0449 8.56055C10.9512 8.56055 10.1172 9.30566 9.9873 10.707H14.0615C13.9385 9.25098 13.1318 8.56055 12.0449 8.56055ZM19.0654 15L16.3379 7.63086H17.5957L19.6123 13.7012H19.7217L21.7383 7.63086H22.9961L20.2686 15H19.0654ZM27.3027 15.1299C25.1973 15.1299 23.9258 13.6533 23.9258 11.3428V11.3359C23.9258 9.05957 25.2246 7.50098 27.2275 7.50098C29.2305 7.50098 30.4473 8.99121 30.4473 11.1924V11.6572H25.1426C25.1768 13.1816 26.0176 14.0703 27.3301 14.0703C28.3281 14.0703 28.9434 13.5986 29.1416 13.1543L29.1689 13.0928H30.3584L30.3447 13.1475C30.0918 14.1455 29.0391 15.1299 27.3027 15.1299ZM27.2207 8.56055C26.127 8.56055 25.293 9.30566 25.1631 10.707H29.2373C29.1143 9.25098 28.3076 8.56055 27.2207 8.56055ZM32.293 15V7.63086H33.4824V8.72461H33.5918C33.8721 7.95215 34.5625 7.50098 35.5605 7.50098C35.7861 7.50098 36.0391 7.52832 36.1553 7.54883V8.7041C35.9092 8.66309 35.6836 8.63574 35.4238 8.63574C34.2891 8.63574 33.4824 9.35352 33.4824 10.4336V15H32.293Z" fill="#374151"/>
<path d="M1.25781 54.3691V44.5049H2.48828V48.7705H7.90234V44.5049H9.13281V54.3691H7.90234V49.8779H2.48828V54.3691H1.25781ZM14.5059 54.499C12.4004 54.499 11.1289 53.0225 11.1289 50.7119V50.7051C11.1289 48.4287 12.4277 46.8701 14.4307 46.8701C16.4336 46.8701 17.6504 48.3604 17.6504 50.5615V51.0264H12.3457C12.3799 52.5508 13.2207 53.4395 14.5332 53.4395C15.5312 53.4395 16.1465 52.9678 16.3447 52.5234L16.3721 52.4619H17.5615L17.5479 52.5166C17.2949 53.5146 16.2422 54.499 14.5059 54.499ZM14.4238 47.9297C13.3301 47.9297 12.4961 48.6748 12.3662 50.0762H16.4404C16.3174 48.6201 15.5107 47.9297 14.4238 47.9297ZM21.5195 54.499C20.1182 54.499 19.0586 53.6514 19.0586 52.3115V52.2979C19.0586 50.9854 20.0293 50.2266 21.7451 50.124L23.8574 49.9941V49.3242C23.8574 48.415 23.3037 47.9229 22.2031 47.9229C21.3213 47.9229 20.7402 48.251 20.5488 48.8252L20.542 48.8457H19.3525L19.3594 48.8047C19.5508 47.6494 20.6719 46.8701 22.2441 46.8701C24.042 46.8701 25.0469 47.793 25.0469 49.3242V54.3691H23.8574V53.2822H23.748C23.2832 54.0684 22.5107 54.499 21.5195 54.499ZM20.2754 52.2842C20.2754 53.0293 20.9111 53.4668 21.7656 53.4668C22.9756 53.4668 23.8574 52.6738 23.8574 51.6211V50.9512L21.8887 51.0742C20.7676 51.1426 20.2754 51.5391 20.2754 52.2705V52.2842ZM29.9414 54.499C28.0752 54.499 26.8516 52.9883 26.8516 50.6914V50.6777C26.8516 48.3672 28.0684 46.8701 29.9414 46.8701C30.9531 46.8701 31.835 47.376 32.2383 48.1621H32.3477V44.0742H33.5371V54.3691H32.3477V53.1934H32.2383C31.7871 54.0137 30.9668 54.499 29.9414 54.499ZM30.2148 53.4463C31.5547 53.4463 32.375 52.3936 32.375 50.6914V50.6777C32.375 48.9756 31.5547 47.9229 30.2148 47.9229C28.8682 47.9229 28.0684 48.9619 28.0684 50.6777V50.6914C28.0684 52.4072 28.8682 53.4463 30.2148 53.4463ZM37.8438 54.499C36.4424 54.499 35.3828 53.6514 35.3828 52.3115V52.2979C35.3828 50.9854 36.3535 50.2266 38.0693 50.124L40.1816 49.9941V49.3242C40.1816 48.415 39.6279 47.9229 38.5273 47.9229C37.6455 47.9229 37.0645 48.251 36.873 48.8252L36.8662 48.8457H35.6768L35.6836 48.8047C35.875 47.6494 36.9961 46.8701 38.5684 46.8701C40.3662 46.8701 41.3711 47.793 41.3711 49.3242V54.3691H40.1816V53.2822H40.0723C39.6074 54.0684 38.835 54.499 37.8438 54.499ZM36.5996 52.2842C36.5996 53.0293 37.2354 53.4668 38.0898 53.4668C39.2998 53.4668 40.1816 52.6738 40.1816 51.6211V50.9512L38.2129 51.0742C37.0918 51.1426 36.5996 51.5391 36.5996 52.2705V52.2842ZM46.5596 54.499C44.4951 54.499 43.1758 53.002 43.1758 50.6641V50.6504C43.1758 48.3604 44.4883 46.8701 46.5527 46.8701C48.3438 46.8701 49.417 47.9023 49.6357 49.2148L49.6426 49.2559H48.46L48.4531 49.2354C48.2686 48.5107 47.6123 47.9229 46.5527 47.9229C45.2266 47.9229 44.3926 48.9893 44.3926 50.6504V50.6641C44.3926 52.3594 45.2402 53.4463 46.5527 53.4463C47.5439 53.4463 48.1729 53.0088 48.4463 52.1885L48.46 52.1475L49.6357 52.1406L49.6221 52.2158C49.3213 53.5488 48.3301 54.499 46.5596 54.499ZM51.4473 54.3691V44.0742H52.6367V48.1074H52.7461C53.1152 47.3281 53.8057 46.8701 54.8926 46.8701C56.5469 46.8701 57.4697 47.8477 57.4697 49.5977V54.3691H56.2803V49.8848C56.2803 48.5586 55.7334 47.9229 54.5576 47.9229C53.3818 47.9229 52.6367 48.7158 52.6367 50.0078V54.3691H51.4473ZM62.6309 54.499C60.5254 54.499 59.2539 53.0225 59.2539 50.7119V50.7051C59.2539 48.4287 60.5527 46.8701 62.5557 46.8701C64.5586 46.8701 65.7754 48.3604 65.7754 50.5615V51.0264H60.4707C60.5049 52.5508 61.3457 53.4395 62.6582 53.4395C63.6562 53.4395 64.2715 52.9678 64.4697 52.5234L64.4971 52.4619H65.6865L65.6729 52.5166C65.4199 53.5146 64.3672 54.499 62.6309 54.499ZM62.5488 47.9297C61.4551 47.9297 60.6211 48.6748 60.4912 50.0762H64.5654C64.4424 48.6201 63.6357 47.9297 62.5488 47.9297Z" fill="#374151"/>
<path d="M4.1084 93.4219L0.47168 83.5576H1.76367L4.66211 91.8291H4.77148L7.66992 83.5576H8.96191L5.3252 93.4219H4.1084ZM12.8857 93.5518C10.7871 93.5518 9.48828 92.1025 9.48828 89.7441V89.7305C9.48828 87.3652 10.7871 85.9229 12.8857 85.9229C14.9844 85.9229 16.2832 87.3652 16.2832 89.7305V89.7441C16.2832 92.1025 14.9844 93.5518 12.8857 93.5518ZM12.8857 92.499C14.2803 92.499 15.0664 91.4805 15.0664 89.7441V89.7305C15.0664 87.9873 14.2803 86.9756 12.8857 86.9756C11.4912 86.9756 10.7051 87.9873 10.7051 89.7305V89.7441C10.7051 91.4805 11.4912 92.499 12.8857 92.499ZM18.1289 93.4219V86.0527H19.3184V87.1738H19.4277C19.7559 86.3809 20.4531 85.9229 21.417 85.9229C22.415 85.9229 23.1123 86.4492 23.4541 87.2148H23.5635C23.96 86.4355 24.8008 85.9229 25.8193 85.9229C27.3232 85.9229 28.1641 86.7842 28.1641 88.3291V93.4219H26.9746V88.6025C26.9746 87.5156 26.4756 86.9756 25.4365 86.9756C24.4111 86.9756 23.7344 87.748 23.7344 88.6846V93.4219H22.5449V88.418C22.5449 87.543 21.9434 86.9756 21.0137 86.9756C20.0498 86.9756 19.3184 87.8164 19.3184 88.8555V93.4219H18.1289ZM30.9395 84.6309C30.4883 84.6309 30.1191 84.2617 30.1191 83.8105C30.1191 83.3594 30.4883 82.9902 30.9395 82.9902C31.3906 82.9902 31.7598 83.3594 31.7598 83.8105C31.7598 84.2617 31.3906 84.6309 30.9395 84.6309ZM30.3379 93.4219V86.0527H31.5273V93.4219H30.3379ZM36.3877 93.4766C34.8701 93.4766 34.2344 92.916 34.2344 91.5078V87.0371H33.0723V86.0527H34.2344V84.1455H35.4648V86.0527H37.0781V87.0371H35.4648V91.207C35.4648 92.0752 35.7656 92.4238 36.5312 92.4238C36.7432 92.4238 36.8594 92.417 37.0781 92.3965V93.4082C36.8457 93.4492 36.6201 93.4766 36.3877 93.4766ZM39.4844 84.6309C39.0332 84.6309 38.6641 84.2617 38.6641 83.8105C38.6641 83.3594 39.0332 82.9902 39.4844 82.9902C39.9355 82.9902 40.3047 83.3594 40.3047 83.8105C40.3047 84.2617 39.9355 84.6309 39.4844 84.6309ZM38.8828 93.4219V86.0527H40.0723V93.4219H38.8828ZM42.3145 93.4219V86.0527H43.5039V87.1602H43.6133C43.9824 86.3809 44.6729 85.9229 45.7598 85.9229C47.4141 85.9229 48.3369 86.9004 48.3369 88.6504V93.4219H47.1475V88.9375C47.1475 87.6113 46.6006 86.9756 45.4248 86.9756C44.249 86.9756 43.5039 87.7686 43.5039 89.0605V93.4219H42.3145ZM53.5254 96.0195C51.748 96.0195 50.6133 95.2197 50.4287 94.0098L50.4424 94.0029H51.6729L51.6797 94.0098C51.8096 94.5703 52.4658 94.9668 53.5254 94.9668C54.8447 94.9668 55.6309 94.3447 55.6309 93.2578V91.7676H55.5215C55.0566 92.5811 54.2227 93.0391 53.2109 93.0391C51.3037 93.0391 50.1211 91.5625 50.1211 89.498V89.4844C50.1211 87.4199 51.3105 85.9229 53.2383 85.9229C54.2773 85.9229 55.084 86.4355 55.5352 87.2695H55.6172V86.0527H56.8066V93.3193C56.8066 94.9668 55.5352 96.0195 53.5254 96.0195ZM53.4707 91.9863C54.8379 91.9863 55.6582 90.9609 55.6582 89.498V89.4844C55.6582 88.0215 54.8311 86.9756 53.4707 86.9756C52.1035 86.9756 51.3379 88.0215 51.3379 89.4844V89.498C51.3379 90.9609 52.1035 91.9863 53.4707 91.9863Z" fill="#374151"/>
<path d="M1.25781 132.475V122.61H7.24609V123.718H2.48828V127.108H6.85645V128.202H2.48828V132.475H1.25781ZM12.1475 132.604C10.0488 132.604 8.75 131.155 8.75 128.797V128.783C8.75 126.418 10.0488 124.976 12.1475 124.976C14.2461 124.976 15.5449 126.418 15.5449 128.783V128.797C15.5449 131.155 14.2461 132.604 12.1475 132.604ZM12.1475 131.552C13.542 131.552 14.3281 130.533 14.3281 128.797V128.783C14.3281 127.04 13.542 126.028 12.1475 126.028C10.7529 126.028 9.9668 127.04 9.9668 128.783V128.797C9.9668 130.533 10.7529 131.552 12.1475 131.552ZM20.4189 132.604C18.3203 132.604 17.0215 131.155 17.0215 128.797V128.783C17.0215 126.418 18.3203 124.976 20.4189 124.976C22.5176 124.976 23.8164 126.418 23.8164 128.783V128.797C23.8164 131.155 22.5176 132.604 20.4189 132.604ZM20.4189 131.552C21.8135 131.552 22.5996 130.533 22.5996 128.797V128.783C22.5996 127.04 21.8135 126.028 20.4189 126.028C19.0244 126.028 18.2383 127.04 18.2383 128.783V128.797C18.2383 130.533 19.0244 131.552 20.4189 131.552ZM28.3828 132.604C26.5166 132.604 25.293 131.094 25.293 128.797V128.783C25.293 126.473 26.5098 124.976 28.3828 124.976C29.3945 124.976 30.2764 125.481 30.6797 126.268H30.7891V122.18H31.9785V132.475H30.7891V131.299H30.6797C30.2285 132.119 29.4082 132.604 28.3828 132.604ZM28.6562 131.552C29.9961 131.552 30.8164 130.499 30.8164 128.797V128.783C30.8164 127.081 29.9961 126.028 28.6562 126.028C27.3096 126.028 26.5098 127.067 26.5098 128.783V128.797C26.5098 130.513 27.3096 131.552 28.6562 131.552ZM38.3496 132.475V122.61H42.0684C43.9209 122.61 45.2334 123.889 45.2334 125.762V125.775C45.2334 127.648 43.9209 128.954 42.0684 128.954H39.5801V132.475H38.3496ZM41.7539 123.704H39.5801V127.86H41.7539C43.1621 127.86 43.9756 127.088 43.9756 125.789V125.775C43.9756 124.477 43.1621 123.704 41.7539 123.704ZM49.9229 132.604C47.8242 132.604 46.5254 131.155 46.5254 128.797V128.783C46.5254 126.418 47.8242 124.976 49.9229 124.976C52.0215 124.976 53.3203 126.418 53.3203 128.783V128.797C53.3203 131.155 52.0215 132.604 49.9229 132.604ZM49.9229 131.552C51.3174 131.552 52.1035 130.533 52.1035 128.797V128.783C52.1035 127.04 51.3174 126.028 49.9229 126.028C48.5283 126.028 47.7422 127.04 47.7422 128.783V128.797C47.7422 130.533 48.5283 131.552 49.9229 131.552ZM55.7949 123.684C55.3438 123.684 54.9746 123.314 54.9746 122.863C54.9746 122.412 55.3438 122.043 55.7949 122.043C56.2461 122.043 56.6152 122.412 56.6152 122.863C56.6152 123.314 56.2461 123.684 55.7949 123.684ZM55.1934 132.475V125.105H56.3828V132.475H55.1934ZM61.1543 132.604C59.5137 132.604 58.3857 131.812 58.249 130.595H59.4658C59.6641 131.21 60.252 131.613 61.1953 131.613C62.1865 131.613 62.8906 131.142 62.8906 130.472V130.458C62.8906 129.959 62.5146 129.61 61.6055 129.392L60.4639 129.118C59.083 128.79 58.4609 128.188 58.4609 127.129V127.122C58.4609 125.898 59.6367 124.976 61.2021 124.976C62.7471 124.976 63.8203 125.748 63.9844 126.951H62.8154C62.6582 126.37 62.084 125.967 61.1953 125.967C60.3203 125.967 59.6777 126.418 59.6777 127.067V127.081C59.6777 127.58 60.0469 127.895 60.915 128.106L62.0498 128.38C63.4375 128.715 64.1074 129.316 64.1074 130.369V130.383C64.1074 131.695 62.8291 132.604 61.1543 132.604ZM66.582 123.684C66.1309 123.684 65.7617 123.314 65.7617 122.863C65.7617 122.412 66.1309 122.043 66.582 122.043C67.0332 122.043 67.4023 122.412 67.4023 122.863C67.4023 123.314 67.0332 123.684 66.582 123.684ZM65.9805 132.475V125.105H67.1699V132.475H65.9805ZM72.4404 132.604C70.3418 132.604 69.043 131.155 69.043 128.797V128.783C69.043 126.418 70.3418 124.976 72.4404 124.976C74.5391 124.976 75.8379 126.418 75.8379 128.783V128.797C75.8379 131.155 74.5391 132.604 72.4404 132.604ZM72.4404 131.552C73.835 131.552 74.6211 130.533 74.6211 128.797V128.783C74.6211 127.04 73.835 126.028 72.4404 126.028C71.0459 126.028 70.2598 127.04 70.2598 128.783V128.797C70.2598 130.533 71.0459 131.552 72.4404 131.552ZM77.6836 132.475V125.105H78.873V126.213H78.9824C79.3516 125.434 80.042 124.976 81.1289 124.976C82.7832 124.976 83.7061 125.953 83.7061 127.703V132.475H82.5166V127.99C82.5166 126.664 81.9697 126.028 80.7939 126.028C79.6182 126.028 78.873 126.821 78.873 128.113V132.475H77.6836ZM86.4883 123.684C86.0371 123.684 85.668 123.314 85.668 122.863C85.668 122.412 86.0371 122.043 86.4883 122.043C86.9395 122.043 87.3086 122.412 87.3086 122.863C87.3086 123.314 86.9395 123.684 86.4883 123.684ZM85.8867 132.475V125.105H87.0762V132.475H85.8867ZM89.3184 132.475V125.105H90.5078V126.213H90.6172C90.9863 125.434 91.6768 124.976 92.7637 124.976C94.418 124.976 95.3408 125.953 95.3408 127.703V132.475H94.1514V127.99C94.1514 126.664 93.6045 126.028 92.4287 126.028C91.2529 126.028 90.5078 126.821 90.5078 128.113V132.475H89.3184ZM100.529 135.072C98.752 135.072 97.6172 134.272 97.4326 133.062L97.4463 133.056H98.6768L98.6836 133.062C98.8135 133.623 99.4697 134.02 100.529 134.02C101.849 134.02 102.635 133.397 102.635 132.311V130.82H102.525C102.061 131.634 101.227 132.092 100.215 132.092C98.3076 132.092 97.125 130.615 97.125 128.551V128.537C97.125 126.473 98.3145 124.976 100.242 124.976C101.281 124.976 102.088 125.488 102.539 126.322H102.621V125.105H103.811V132.372C103.811 134.02 102.539 135.072 100.529 135.072ZM100.475 131.039C101.842 131.039 102.662 130.014 102.662 128.551V128.537C102.662 127.074 101.835 126.028 100.475 126.028C99.1074 126.028 98.3418 127.074 98.3418 128.537V128.551C98.3418 130.014 99.1074 131.039 100.475 131.039Z" fill="#374151"/>
<path d="M3.30176 171.525L0.615234 161.661H1.90039L3.8623 169.68H3.94434L6.15234 161.661H7.39648L9.60449 169.68H9.68652L11.6484 161.661H12.9336L10.2471 171.525H9.08496L6.81543 163.739H6.7334L4.46387 171.525H3.30176ZM16.9805 171.655C14.875 171.655 13.6035 170.179 13.6035 167.868V167.861C13.6035 165.585 14.9023 164.026 16.9053 164.026C18.9082 164.026 20.125 165.517 20.125 167.718V168.183H14.8203C14.8545 169.707 15.6953 170.596 17.0078 170.596C18.0059 170.596 18.6211 170.124 18.8193 169.68L18.8467 169.618H20.0361L20.0225 169.673C19.7695 170.671 18.7168 171.655 16.9805 171.655ZM16.8984 165.086C15.8047 165.086 14.9707 165.831 14.8408 167.232H18.915C18.792 165.776 17.9854 165.086 16.8984 165.086ZM23.9941 171.655C22.5928 171.655 21.5332 170.808 21.5332 169.468V169.454C21.5332 168.142 22.5039 167.383 24.2197 167.28L26.332 167.15V166.48C26.332 165.571 25.7783 165.079 24.6777 165.079C23.7959 165.079 23.2148 165.407 23.0234 165.981L23.0166 166.002H21.8271L21.834 165.961C22.0254 164.806 23.1465 164.026 24.7188 164.026C26.5166 164.026 27.5215 164.949 27.5215 166.48V171.525H26.332V170.438H26.2227C25.7578 171.225 24.9854 171.655 23.9941 171.655ZM22.75 169.44C22.75 170.186 23.3857 170.623 24.2402 170.623C25.4502 170.623 26.332 169.83 26.332 168.777V168.107L24.3633 168.23C23.2422 168.299 22.75 168.695 22.75 169.427V169.44ZM29.7637 171.525V161.23H30.9531V167.376H31.0625L34.248 164.156H35.6904L32.4775 167.253L35.9023 171.525H34.4053L31.6436 168.06L30.9531 168.729V171.525H29.7637ZM37.2969 171.525V164.156H38.4863V165.264H38.5957C38.9648 164.484 39.6553 164.026 40.7422 164.026C42.3965 164.026 43.3193 165.004 43.3193 166.754V171.525H42.1299V167.041C42.1299 165.715 41.583 165.079 40.4072 165.079C39.2314 165.079 38.4863 165.872 38.4863 167.164V171.525H37.2969ZM48.4805 171.655C46.375 171.655 45.1035 170.179 45.1035 167.868V167.861C45.1035 165.585 46.4023 164.026 48.4053 164.026C50.4082 164.026 51.625 165.517 51.625 167.718V168.183H46.3203C46.3545 169.707 47.1953 170.596 48.5078 170.596C49.5059 170.596 50.1211 170.124 50.3193 169.68L50.3467 169.618H51.5361L51.5225 169.673C51.2695 170.671 50.2168 171.655 48.4805 171.655ZM48.3984 165.086C47.3047 165.086 46.4707 165.831 46.3408 167.232H50.415C50.292 165.776 49.4854 165.086 48.3984 165.086ZM56 171.655C54.3594 171.655 53.2314 170.862 53.0947 169.646H54.3115C54.5098 170.261 55.0977 170.664 56.041 170.664C57.0322 170.664 57.7363 170.192 57.7363 169.522V169.509C57.7363 169.01 57.3604 168.661 56.4512 168.442L55.3096 168.169C53.9287 167.841 53.3066 167.239 53.3066 166.18V166.173C53.3066 164.949 54.4824 164.026 56.0479 164.026C57.5928 164.026 58.666 164.799 58.8301 166.002H57.6611C57.5039 165.421 56.9297 165.018 56.041 165.018C55.166 165.018 54.5234 165.469 54.5234 166.118V166.132C54.5234 166.631 54.8926 166.945 55.7607 167.157L56.8955 167.431C58.2832 167.766 58.9531 168.367 58.9531 169.42V169.434C58.9531 170.746 57.6748 171.655 56 171.655ZM63.1914 171.655C61.5508 171.655 60.4229 170.862 60.2861 169.646H61.5029C61.7012 170.261 62.2891 170.664 63.2324 170.664C64.2236 170.664 64.9277 170.192 64.9277 169.522V169.509C64.9277 169.01 64.5518 168.661 63.6426 168.442L62.501 168.169C61.1201 167.841 60.498 167.239 60.498 166.18V166.173C60.498 164.949 61.6738 164.026 63.2393 164.026C64.7842 164.026 65.8574 164.799 66.0215 166.002H64.8525C64.6953 165.421 64.1211 165.018 63.2324 165.018C62.3574 165.018 61.7148 165.469 61.7148 166.118V166.132C61.7148 166.631 62.084 166.945 62.9521 167.157L64.0869 167.431C65.4746 167.766 66.1445 168.367 66.1445 169.42V169.434C66.1445 170.746 64.8662 171.655 63.1914 171.655Z" fill="#374151"/>
<path d="M1.25781 210.578V200.714H7.24609V201.821H2.48828V205.212H6.85645V206.306H2.48828V210.578H1.25781ZM9.74805 201.787C9.29688 201.787 8.92773 201.418 8.92773 200.967C8.92773 200.516 9.29688 200.146 9.74805 200.146C10.1992 200.146 10.5684 200.516 10.5684 200.967C10.5684 201.418 10.1992 201.787 9.74805 201.787ZM9.14648 210.578V203.209H10.3359V210.578H9.14648ZM12.5781 210.578V203.209H13.7676V204.303H13.877C14.1572 203.53 14.8477 203.079 15.8457 203.079C16.0713 203.079 16.3242 203.106 16.4404 203.127V204.282C16.1943 204.241 15.9688 204.214 15.709 204.214C14.5742 204.214 13.7676 204.932 13.7676 206.012V210.578H12.5781ZM20.3027 210.708C18.6621 210.708 17.5342 209.915 17.3975 208.698H18.6143C18.8125 209.313 19.4004 209.717 20.3438 209.717C21.335 209.717 22.0391 209.245 22.0391 208.575V208.562C22.0391 208.062 21.6631 207.714 20.7539 207.495L19.6123 207.222C18.2314 206.894 17.6094 206.292 17.6094 205.232V205.226C17.6094 204.002 18.7852 203.079 20.3506 203.079C21.8955 203.079 22.9688 203.852 23.1328 205.055H21.9639C21.8066 204.474 21.2324 204.07 20.3438 204.07C19.4688 204.07 18.8262 204.521 18.8262 205.171V205.185C18.8262 205.684 19.1953 205.998 20.0635 206.21L21.1982 206.483C22.5859 206.818 23.2559 207.42 23.2559 208.473V208.486C23.2559 209.799 21.9775 210.708 20.3027 210.708ZM27.6514 210.633C26.1338 210.633 25.498 210.072 25.498 208.664V204.193H24.3359V203.209H25.498V201.302H26.7285V203.209H28.3418V204.193H26.7285V208.363C26.7285 209.231 27.0293 209.58 27.7949 209.58C28.0068 209.58 28.123 209.573 28.3418 209.553V210.564C28.1094 210.605 27.8838 210.633 27.6514 210.633ZM33.4209 210.578L37.0576 200.714H38.2744L41.9111 210.578H40.6191L39.6279 207.755H35.7041L34.7129 210.578H33.4209ZM37.6113 202.307L36.0664 206.709H39.2656L37.7207 202.307H37.6113ZM44.1191 201.787C43.668 201.787 43.2988 201.418 43.2988 200.967C43.2988 200.516 43.668 200.146 44.1191 200.146C44.5703 200.146 44.9395 200.516 44.9395 200.967C44.9395 201.418 44.5703 201.787 44.1191 201.787ZM43.5176 210.578V203.209H44.707V210.578H43.5176ZM49.6699 210.708C47.8037 210.708 46.5801 209.197 46.5801 206.9V206.887C46.5801 204.576 47.7969 203.079 49.6699 203.079C50.6816 203.079 51.5635 203.585 51.9668 204.371H52.0762V200.283H53.2656V210.578H52.0762V209.402H51.9668C51.5156 210.223 50.6953 210.708 49.6699 210.708ZM49.9434 209.655C51.2832 209.655 52.1035 208.603 52.1035 206.9V206.887C52.1035 205.185 51.2832 204.132 49.9434 204.132C48.5967 204.132 47.7969 205.171 47.7969 206.887V206.9C47.7969 208.616 48.5967 209.655 49.9434 209.655Z" fill="#374151"/>
<path d="M1.25781 249.631V239.767H4.6416C7.56738 239.767 9.29688 241.592 9.29688 244.688V244.702C9.29688 247.806 7.57422 249.631 4.6416 249.631H1.25781ZM2.48828 248.523H4.55957C6.76074 248.523 8.03906 247.115 8.03906 244.716V244.702C8.03906 242.296 6.74707 240.874 4.55957 240.874H2.48828V248.523ZM11.9082 240.84C11.457 240.84 11.0879 240.471 11.0879 240.02C11.0879 239.568 11.457 239.199 11.9082 239.199C12.3594 239.199 12.7285 239.568 12.7285 240.02C12.7285 240.471 12.3594 240.84 11.9082 240.84ZM11.3066 249.631V242.262H12.4961V249.631H11.3066ZM16.7617 249.761C15.3604 249.761 14.3008 248.913 14.3008 247.573V247.56C14.3008 246.247 15.2715 245.488 16.9873 245.386L19.0996 245.256V244.586C19.0996 243.677 18.5459 243.185 17.4453 243.185C16.5635 243.185 15.9824 243.513 15.791 244.087L15.7842 244.107H14.5947L14.6016 244.066C14.793 242.911 15.9141 242.132 17.4863 242.132C19.2842 242.132 20.2891 243.055 20.2891 244.586V249.631H19.0996V248.544H18.9902C18.5254 249.33 17.7529 249.761 16.7617 249.761ZM15.5176 247.546C15.5176 248.291 16.1533 248.729 17.0078 248.729C18.2178 248.729 19.0996 247.936 19.0996 246.883V246.213L17.1309 246.336C16.0098 246.404 15.5176 246.801 15.5176 247.532V247.546ZM26.127 249.761C25.1016 249.761 24.2812 249.275 23.8301 248.455H23.7207V249.631H22.5312V239.336H23.7207V243.424H23.8301C24.2334 242.638 25.1152 242.132 26.127 242.132C28 242.132 29.2168 243.629 29.2168 245.939V245.953C29.2168 248.25 27.9932 249.761 26.127 249.761ZM25.8535 248.708C27.2002 248.708 28 247.669 28 245.953V245.939C28 244.224 27.2002 243.185 25.8535 243.185C24.5137 243.185 23.6934 244.237 23.6934 245.939V245.953C23.6934 247.655 24.5137 248.708 25.8535 248.708ZM34.0703 249.761C31.9648 249.761 30.6934 248.284 30.6934 245.974V245.967C30.6934 243.69 31.9922 242.132 33.9951 242.132C35.998 242.132 37.2148 243.622 37.2148 245.823V246.288H31.9102C31.9443 247.812 32.7852 248.701 34.0977 248.701C35.0957 248.701 35.7109 248.229 35.9092 247.785L35.9365 247.724H37.126L37.1123 247.778C36.8594 248.776 35.8066 249.761 34.0703 249.761ZM33.9883 243.191C32.8945 243.191 32.0605 243.937 31.9307 245.338H36.0049C35.8818 243.882 35.0752 243.191 33.9883 243.191ZM41.6787 249.686C40.1611 249.686 39.5254 249.125 39.5254 247.717V243.246H38.3633V242.262H39.5254V240.354H40.7559V242.262H42.3691V243.246H40.7559V247.416C40.7559 248.284 41.0566 248.633 41.8223 248.633C42.0342 248.633 42.1504 248.626 42.3691 248.605V249.617C42.1367 249.658 41.9111 249.686 41.6787 249.686ZM47.0449 249.761C44.9395 249.761 43.668 248.284 43.668 245.974V245.967C43.668 243.69 44.9668 242.132 46.9697 242.132C48.9727 242.132 50.1895 243.622 50.1895 245.823V246.288H44.8848C44.9189 247.812 45.7598 248.701 47.0723 248.701C48.0703 248.701 48.6855 248.229 48.8838 247.785L48.9111 247.724H50.1006L50.0869 247.778C49.834 248.776 48.7812 249.761 47.0449 249.761ZM46.9629 243.191C45.8691 243.191 45.0352 243.937 44.9053 245.338H48.9795C48.8564 243.882 48.0498 243.191 46.9629 243.191ZM54.5645 249.761C52.9238 249.761 51.7959 248.968 51.6592 247.751H52.876C53.0742 248.366 53.6621 248.77 54.6055 248.77C55.5967 248.77 56.3008 248.298 56.3008 247.628V247.614C56.3008 247.115 55.9248 246.767 55.0156 246.548L53.874 246.274C52.4932 245.946 51.8711 245.345 51.8711 244.285V244.278C51.8711 243.055 53.0469 242.132 54.6123 242.132C56.1572 242.132 57.2305 242.904 57.3945 244.107H56.2256C56.0684 243.526 55.4941 243.123 54.6055 243.123C53.7305 243.123 53.0879 243.574 53.0879 244.224V244.237C53.0879 244.736 53.457 245.051 54.3252 245.263L55.46 245.536C56.8477 245.871 57.5176 246.473 57.5176 247.525V247.539C57.5176 248.852 56.2393 249.761 54.5645 249.761Z" fill="#374151"/>
<path d="M1.25781 288.682V278.817H4.97656C6.8291 278.817 8.1416 280.096 8.1416 281.969V281.982C8.1416 283.855 6.8291 285.161 4.97656 285.161H2.48828V288.682H1.25781ZM4.66211 279.911H2.48828V284.067H4.66211C6.07031 284.067 6.88379 283.295 6.88379 281.996V281.982C6.88379 280.684 6.07031 279.911 4.66211 279.911ZM11.7578 288.812C10.3564 288.812 9.29688 287.964 9.29688 286.624V286.61C9.29688 285.298 10.2676 284.539 11.9834 284.437L14.0957 284.307V283.637C14.0957 282.728 13.542 282.235 12.4414 282.235C11.5596 282.235 10.9785 282.563 10.7871 283.138L10.7803 283.158H9.59082L9.59766 283.117C9.78906 281.962 10.9102 281.183 12.4824 281.183C14.2803 281.183 15.2852 282.105 15.2852 283.637V288.682H14.0957V287.595H13.9863C13.5215 288.381 12.749 288.812 11.7578 288.812ZM10.5137 286.597C10.5137 287.342 11.1494 287.779 12.0039 287.779C13.2139 287.779 14.0957 286.986 14.0957 285.934V285.264L12.127 285.387C11.0059 285.455 10.5137 285.852 10.5137 286.583V286.597ZM18.0879 279.891C17.6367 279.891 17.2676 279.521 17.2676 279.07C17.2676 278.619 17.6367 278.25 18.0879 278.25C18.5391 278.25 18.9082 278.619 18.9082 279.07C18.9082 279.521 18.5391 279.891 18.0879 279.891ZM17.4863 288.682V281.312H18.6758V288.682H17.4863ZM20.918 288.682V281.312H22.1074V282.42H22.2168C22.5859 281.641 23.2764 281.183 24.3633 281.183C26.0176 281.183 26.9404 282.16 26.9404 283.91V288.682H25.751V284.197C25.751 282.871 25.2041 282.235 24.0283 282.235C22.8525 282.235 22.1074 283.028 22.1074 284.32V288.682H20.918ZM33.1816 288.682V278.817H34.4121V283.609H34.5215L38.8418 278.817H40.3867L36.4424 283.076L40.749 288.682H39.1562L35.5947 283.931L34.4121 285.236V288.682H33.1816ZM42.8887 279.891C42.4375 279.891 42.0684 279.521 42.0684 279.07C42.0684 278.619 42.4375 278.25 42.8887 278.25C43.3398 278.25 43.709 278.619 43.709 279.07C43.709 279.521 43.3398 279.891 42.8887 279.891ZM42.2871 288.682V281.312H43.4766V288.682H42.2871ZM45.7871 288.682V278.387H46.9766V288.682H45.7871ZM49.3281 288.682V278.387H50.5176V288.682H49.3281ZM55.8086 288.812C53.7031 288.812 52.4316 287.335 52.4316 285.024V285.018C52.4316 282.741 53.7305 281.183 55.7334 281.183C57.7363 281.183 58.9531 282.673 58.9531 284.874V285.339H53.6484C53.6826 286.863 54.5234 287.752 55.8359 287.752C56.834 287.752 57.4492 287.28 57.6475 286.836L57.6748 286.774H58.8643L58.8506 286.829C58.5977 287.827 57.5449 288.812 55.8086 288.812ZM55.7266 282.242C54.6328 282.242 53.7988 282.987 53.6689 284.389H57.7432C57.6201 282.933 56.8135 282.242 55.7266 282.242ZM60.7988 288.682V281.312H61.9883V282.406H62.0977C62.3779 281.634 63.0684 281.183 64.0664 281.183C64.292 281.183 64.5449 281.21 64.6611 281.23V282.386C64.415 282.345 64.1895 282.317 63.9297 282.317C62.7949 282.317 61.9883 283.035 61.9883 284.115V288.682H60.7988ZM68.5234 288.812C66.8828 288.812 65.7549 288.019 65.6182 286.802H66.835C67.0332 287.417 67.6211 287.82 68.5645 287.82C69.5557 287.82 70.2598 287.349 70.2598 286.679V286.665C70.2598 286.166 69.8838 285.817 68.9746 285.599L67.833 285.325C66.4521 284.997 65.8301 284.396 65.8301 283.336V283.329C65.8301 282.105 67.0059 281.183 68.5713 281.183C70.1162 281.183 71.1895 281.955 71.3535 283.158H70.1846C70.0273 282.577 69.4531 282.174 68.5645 282.174C67.6895 282.174 67.0469 282.625 67.0469 283.274V283.288C67.0469 283.787 67.416 284.102 68.2842 284.313L69.4189 284.587C70.8066 284.922 71.4766 285.523 71.4766 286.576V286.59C71.4766 287.902 70.1982 288.812 68.5234 288.812Z" fill="#374151"/>
<path d="M1.25781 327.734V317.87H2.48828V322.136H7.90234V317.87H9.13281V327.734H7.90234V323.243H2.48828V327.734H1.25781ZM14.5059 327.864C12.4004 327.864 11.1289 326.388 11.1289 324.077V324.07C11.1289 321.794 12.4277 320.235 14.4307 320.235C16.4336 320.235 17.6504 321.726 17.6504 323.927V324.392H12.3457C12.3799 325.916 13.2207 326.805 14.5332 326.805C15.5312 326.805 16.1465 326.333 16.3447 325.889L16.3721 325.827H17.5615L17.5479 325.882C17.2949 326.88 16.2422 327.864 14.5059 327.864ZM14.4238 321.295C13.3301 321.295 12.4961 322.04 12.3662 323.441H16.4404C16.3174 321.985 15.5107 321.295 14.4238 321.295ZM21.5195 327.864C20.1182 327.864 19.0586 327.017 19.0586 325.677V325.663C19.0586 324.351 20.0293 323.592 21.7451 323.489L23.8574 323.359V322.689C23.8574 321.78 23.3037 321.288 22.2031 321.288C21.3213 321.288 20.7402 321.616 20.5488 322.19L20.542 322.211H19.3525L19.3594 322.17C19.5508 321.015 20.6719 320.235 22.2441 320.235C24.042 320.235 25.0469 321.158 25.0469 322.689V327.734H23.8574V326.647H23.748C23.2832 327.434 22.5107 327.864 21.5195 327.864ZM20.2754 325.649C20.2754 326.395 20.9111 326.832 21.7656 326.832C22.9756 326.832 23.8574 326.039 23.8574 324.986V324.316L21.8887 324.439C20.7676 324.508 20.2754 324.904 20.2754 325.636V325.649ZM27.2207 327.734V320.365H28.4102V321.459H28.5195C28.7998 320.687 29.4902 320.235 30.4883 320.235C30.7139 320.235 30.9668 320.263 31.083 320.283V321.438C30.8369 321.397 30.6113 321.37 30.3516 321.37C29.2168 321.37 28.4102 322.088 28.4102 323.168V327.734H27.2207ZM35.5811 327.789C34.0635 327.789 33.4277 327.229 33.4277 325.82V321.35H32.2656V320.365H33.4277V318.458H34.6582V320.365H36.2715V321.35H34.6582V325.52C34.6582 326.388 34.959 326.736 35.7246 326.736C35.9365 326.736 36.0527 326.729 36.2715 326.709V327.721C36.0391 327.762 35.8135 327.789 35.5811 327.789ZM41.3506 327.734L44.9873 317.87H46.2041L49.8408 327.734H48.5488L47.5576 324.911H43.6338L42.6426 327.734H41.3506ZM45.541 319.463L43.9961 323.865H47.1953L45.6504 319.463H45.541ZM53.6279 327.789C52.1104 327.789 51.4746 327.229 51.4746 325.82V321.35H50.3125V320.365H51.4746V318.458H52.7051V320.365H54.3184V321.35H52.7051V325.52C52.7051 326.388 53.0059 326.736 53.7715 326.736C53.9834 326.736 54.0996 326.729 54.3184 326.709V327.721C54.0859 327.762 53.8604 327.789 53.6279 327.789ZM58.7139 327.789C57.1963 327.789 56.5605 327.229 56.5605 325.82V321.35H55.3984V320.365H56.5605V318.458H57.791V320.365H59.4043V321.35H57.791V325.52C57.791 326.388 58.0918 326.736 58.8574 326.736C59.0693 326.736 59.1855 326.729 59.4043 326.709V327.721C59.1719 327.762 58.9463 327.789 58.7139 327.789ZM63.2051 327.864C61.8037 327.864 60.7441 327.017 60.7441 325.677V325.663C60.7441 324.351 61.7148 323.592 63.4307 323.489L65.543 323.359V322.689C65.543 321.78 64.9893 321.288 63.8887 321.288C63.0068 321.288 62.4258 321.616 62.2344 322.19L62.2275 322.211H61.0381L61.0449 322.17C61.2363 321.015 62.3574 320.235 63.9297 320.235C65.7275 320.235 66.7324 321.158 66.7324 322.689V327.734H65.543V326.647H65.4336C64.9688 327.434 64.1963 327.864 63.2051 327.864ZM61.9609 325.649C61.9609 326.395 62.5967 326.832 63.4512 326.832C64.6611 326.832 65.543 326.039 65.543 324.986V324.316L63.5742 324.439C62.4531 324.508 61.9609 324.904 61.9609 325.636V325.649ZM71.9209 327.864C69.8564 327.864 68.5371 326.367 68.5371 324.029V324.016C68.5371 321.726 69.8496 320.235 71.9141 320.235C73.7051 320.235 74.7783 321.268 74.9971 322.58L75.0039 322.621H73.8213L73.8145 322.601C73.6299 321.876 72.9736 321.288 71.9141 321.288C70.5879 321.288 69.7539 322.354 69.7539 324.016V324.029C69.7539 325.725 70.6016 326.812 71.9141 326.812C72.9053 326.812 73.5342 326.374 73.8076 325.554L73.8213 325.513L74.9971 325.506L74.9834 325.581C74.6826 326.914 73.6914 327.864 71.9209 327.864ZM76.8086 327.734V317.439H77.998V323.585H78.1074L81.293 320.365H82.7354L79.5225 323.462L82.9473 327.734H81.4502L78.6885 324.269L77.998 324.938V327.734H76.8086Z" fill="#374151"/>
<rect x="186.25" y="10.5723" width="0.5" height="360.5" stroke="#E2E8F0" stroke-width="0.5"/>
<rect x="233.25" y="10.5723" width="0.5" height="360.5" stroke="#E2E8F0" stroke-width="0.5"/>
<rect x="280.25" y="10.5723" width="0.5" height="360.5" stroke="#E2E8F0" stroke-width="0.5"/>
<rect x="327.25" y="10.5723" width="0.5" height="360.5" stroke="#E2E8F0" stroke-width="0.5"/>
<rect x="374.25" y="10.5723" width="0.5" height="360.5" stroke="#E2E8F0" stroke-width="0.5"/>
<rect x="421.25" y="10.5723" width="0.5" height="360.5" stroke="#E2E8F0" stroke-width="0.5"/>
<rect x="468.25" y="10.5723" width="0.5" height="360.5" stroke="#E2E8F0" stroke-width="0.5"/>
<rect x="515.25" y="10.5723" width="0.5" height="360.5" stroke="#E2E8F0" stroke-width="0.5"/>
<rect x="562.25" y="10.5723" width="0.5" height="360.5" stroke="#E2E8F0" stroke-width="0.5"/>
<rect x="609.25" y="10.5723" width="0.5" height="360.5" stroke="#E2E8F0" stroke-width="0.5"/>
<rect x="656.25" y="10.5723" width="0.5" height="360.5" stroke="#E2E8F0" stroke-width="0.5"/>
<path d="M186 4.32227H581.671C584.984 4.32227 587.671 7.0166 587.671 10.3303C587.671 13.644 584.984 16.3383 581.671 16.3383H186V4.32227Z" fill="#4350A5"/>
<path d="M186 43.375H412.279C415.593 43.375 418.279 46.0693 418.279 49.383C418.279 52.6967 415.593 55.3911 412.279 55.3911H186V43.375Z" fill="#4350A5"/>
<path d="M186 82.4277H398.079C401.392 82.4277 404.079 85.1221 404.079 88.4358C404.079 91.7495 401.392 94.4438 398.079 94.4438H186V82.4277Z" fill="#4350A5"/>
<path d="M186 121.479H438.652C441.965 121.479 444.652 124.173 444.652 127.487C444.652 130.8 441.965 133.495 438.652 133.495H186V121.479Z" fill="#4350A5"/>
<path d="M186 160.531H401.122C404.435 160.531 407.122 163.226 407.122 166.539C407.122 169.853 404.435 172.547 401.122 172.547H186V160.531Z" fill="#4350A5"/>
<path d="M186 199.584H359.535C362.848 199.584 365.535 202.278 365.535 205.592C365.535 208.906 362.848 211.6 359.535 211.6H186V199.584Z" fill="#4350A5"/>
<path d="M186 238.635H318.962C322.276 238.635 324.962 241.329 324.962 244.643C324.962 247.957 322.276 250.651 318.962 250.651H186V238.635Z" fill="#4350A5"/>
<path d="M186 277.688H279.403C282.717 277.688 285.403 280.382 285.403 283.696C285.403 287.009 282.717 289.704 279.403 289.704H186V277.688Z" fill="#4350A5"/>
<path d="M186 316.74H200.286C203.6 316.74 206.286 319.435 206.286 322.748C206.286 326.062 203.6 328.756 200.286 328.756H186V316.74Z" fill="#4350A5"/>
</svg>
