<svg width="24" height="24" viewBox="0 0 24 24" fill="none" xmlns="http://www.w3.org/2000/svg">
<path d="M19.5 3.375H4.5C4.00272 3.375 3.52581 3.57254 3.17417 3.92417C2.82254 4.27581 2.625 4.75272 2.625 5.25V18.75C2.625 19.2473 2.82254 19.7242 3.17417 20.0758C3.52581 20.4275 4.00272 20.625 4.5 20.625H19.5C19.9973 20.625 20.4742 20.4275 20.8258 20.0758C21.1775 19.7242 21.375 19.2473 21.375 18.75V5.25C21.375 4.75272 21.1775 4.27581 20.8258 3.92417C20.4742 3.57254 19.9973 3.375 19.5 3.375ZM19.125 5.625V10.875H4.875V5.625H19.125ZM4.875 18.375V13.125H19.125V18.375H4.875ZM15 8.25C15 7.95333 15.088 7.66332 15.2528 7.41665C15.4176 7.16997 15.6519 6.97771 15.926 6.86418C16.2001 6.75065 16.5017 6.72094 16.7926 6.77882C17.0836 6.8367 17.3509 6.97956 17.5607 7.18934C17.7704 7.39912 17.9133 7.66639 17.9712 7.95736C18.0291 8.24834 17.9994 8.54994 17.8858 8.82403C17.7723 9.09811 17.58 9.33238 17.3334 9.4972C17.0867 9.66203 16.7967 9.75 16.5 9.75C16.1022 9.75 15.7206 9.59196 15.4393 9.31066C15.158 9.02936 15 8.64782 15 8.25ZM18 15.75C18 16.0467 17.912 16.3367 17.7472 16.5834C17.5824 16.83 17.3481 17.0223 17.074 17.1358C16.7999 17.2494 16.4983 17.2791 16.2074 17.2212C15.9164 17.1633 15.6491 17.0204 15.4393 16.8107C15.2296 16.6009 15.0867 16.3336 15.0288 16.0426C14.9709 15.7517 15.0006 15.4501 15.1142 15.176C15.2277 14.9019 15.42 14.6676 15.6666 14.5028C15.9133 14.338 16.2033 14.25 16.5 14.25C16.8978 14.25 17.2794 14.408 17.5607 14.6893C17.842 14.9706 18 15.3522 18 15.75Z" fill="white"/>
</svg>
