<svg width="18" height="18" viewBox="0 0 18 18" fill="none" xmlns="http://www.w3.org/2000/svg">
<path d="M5.44444 11.5866V13.3644M9 8.03103V13.3644M12.5556 4.47548V13.3644M5.26667 16.9199H12.7333C14.2268 16.9199 14.9735 16.9199 15.544 16.6293C16.0457 16.3736 16.4537 15.9657 16.7094 15.4639C17 14.8935 17 14.1467 17 12.6533V5.18659C17 3.69312 17 2.94638 16.7094 2.37595C16.4537 1.87418 16.0457 1.46623 15.544 1.21057C14.9735 0.919922 14.2268 0.919922 12.7333 0.919922H5.26667C3.77319 0.919922 3.02646 0.919922 2.45603 1.21057C1.95426 1.46623 1.54631 1.87418 1.29065 2.37595C1 2.94638 1 3.69312 1 5.18659V12.6533C1 14.1467 1 14.8935 1.29065 15.4639C1.54631 15.9657 1.95426 16.3736 2.45603 16.6293C3.02646 16.9199 3.77319 16.9199 5.26667 16.9199Z" stroke="white" stroke-width="1.7" stroke-linecap="round" stroke-linejoin="round"/>
</svg>
