<svg width="29" height="29" viewBox="0 0 29 29" fill="none" xmlns="http://www.w3.org/2000/svg">
<path d="M23.8915 4.60418C22.7988 3.51169 21.317 2.89795 19.7719 2.89795C18.2267 2.89795 16.7449 3.51169 15.6522 4.60418L4.55069 15.7047C3.48109 16.8018 2.88682 18.2761 2.8966 19.8083C2.90639 21.3405 3.51944 22.8071 4.60295 23.8905C5.68647 24.9739 7.15319 25.5867 8.68538 25.5963C10.2176 25.6059 11.6918 25.0114 12.7888 23.9417L23.8915 12.8412C24.982 11.748 25.5943 10.2668 25.5943 8.7227C25.5943 7.17856 24.982 5.69744 23.8915 4.60418ZM22.6533 11.6042L17.1026 17.1539L11.3396 11.392L16.8904 5.84121C17.6576 5.09169 18.6894 4.67486 19.762 4.68113C20.8346 4.68739 21.8614 5.11625 22.6199 5.87469C23.3783 6.63313 23.8072 7.65999 23.8134 8.73256C23.8197 9.80513 23.4029 10.8369 22.6533 11.6042ZM20.9657 9.27887C21.047 9.36013 21.1116 9.45664 21.1556 9.56286C21.1996 9.66908 21.2223 9.78294 21.2223 9.89793C21.2223 10.0129 21.1996 10.1268 21.1556 10.233C21.1116 10.3392 21.047 10.4357 20.9657 10.517L18.3407 13.142C18.2594 13.2232 18.1629 13.2876 18.0567 13.3316C17.9505 13.3755 17.8367 13.3981 17.7218 13.398C17.6069 13.398 17.4931 13.3753 17.3869 13.3313C17.2808 13.2872 17.1843 13.2227 17.1031 13.1414C17.0219 13.0602 16.9575 12.9637 16.9135 12.8575C16.8696 12.7513 16.847 12.6375 16.8471 12.5225C16.8471 12.4076 16.8698 12.2938 16.9138 12.1877C16.9579 12.0815 17.0224 11.9851 17.1037 11.9039L19.7287 9.27887C19.8927 9.1149 20.1152 9.02279 20.3472 9.02279C20.5791 9.02279 20.8016 9.1149 20.9657 9.27887Z" fill="#46B4A0"/>
</svg>
