<svg width="18" height="18" viewBox="0 0 18 18" fill="none" xmlns="http://www.w3.org/2000/svg">
<path d="M13.2891 13.2188L14.6616 11.847C14.8201 11.6885 14.9091 11.4735 14.9091 11.2493C14.9091 11.0251 14.8201 10.8102 14.6616 10.6516C14.5031 10.4931 14.2881 10.4041 14.0639 10.4041C13.8397 10.4041 13.6248 10.4931 13.4663 10.6516L12.0938 12.0234L9.76852 9.70313C10.6882 9.45052 11.4849 8.8727 12.0107 8.07698C12.5365 7.28127 12.7556 6.32176 12.6274 5.37668C12.4991 4.4316 12.0322 3.56521 11.3133 2.93843C10.5944 2.31165 9.67249 1.96709 8.71875 1.96876H5.0625C4.83872 1.96876 4.62411 2.05765 4.46588 2.21588C4.30764 2.37412 4.21875 2.58873 4.21875 2.81251V13.5C4.21875 13.7238 4.30764 13.9384 4.46588 14.0966C4.62411 14.2549 4.83872 14.3438 5.0625 14.3438C5.28628 14.3438 5.50089 14.2549 5.65912 14.0966C5.81736 13.9384 5.90625 13.7238 5.90625 13.5V9.84376H7.52344L10.8984 13.2188L9.52594 14.5906C9.44745 14.669 9.38519 14.7622 9.34272 14.8648C9.30024 14.9673 9.27838 15.0772 9.27838 15.1882C9.27838 15.2992 9.30024 15.4091 9.34272 15.5117C9.38519 15.6142 9.44745 15.7074 9.52594 15.7859C9.68445 15.9444 9.89943 16.0334 10.1236 16.0334C10.2346 16.0334 10.3445 16.0116 10.447 15.9691C10.5496 15.9266 10.6428 15.8644 10.7212 15.7859L12.0938 14.4141L13.4655 15.7866C13.6241 15.9451 13.839 16.0341 14.0632 16.0341C14.2874 16.0341 14.5024 15.9451 14.6609 15.7866C14.8194 15.6281 14.9084 15.4131 14.9084 15.1889C14.9084 14.9647 14.8194 14.7498 14.6609 14.5913L13.2891 13.2188ZM5.90625 3.65626H8.71875C9.31549 3.65626 9.88778 3.89331 10.3097 4.31527C10.7317 4.73722 10.9688 5.30952 10.9688 5.90626C10.9688 6.50299 10.7317 7.07529 10.3097 7.49725C9.88778 7.9192 9.31549 8.15626 8.71875 8.15626H5.90625V3.65626Z" fill="#4B5563"/>
</svg>
