<svg width="33" height="33" viewBox="0 0 33 33" fill="none" xmlns="http://www.w3.org/2000/svg">
<path d="M16.0567 32.377C24.8803 32.377 32.0333 25.2135 32.0333 16.377C32.0333 7.5404 24.8803 0.376953 16.0567 0.376953C7.23305 0.376953 0.0800781 7.5404 0.0800781 16.377C0.0800781 25.2135 7.23305 32.377 16.0567 32.377Z" fill="#4E3E93"/>
<path d="M7.2373 21V11.1357H8.61816L13.6904 18.3135H13.793V11.1357H15.2832V21H13.9023L8.83691 13.8359H8.72754V21H7.2373ZM21.1006 21.2393C18.8721 21.2393 17.4434 20.1113 17.3066 18.4502L17.2998 18.3613H18.8037L18.8105 18.4365C18.8926 19.332 19.8428 19.9062 21.1621 19.9062C22.4199 19.9062 23.3154 19.2773 23.3154 18.3613V18.3545C23.3154 17.5957 22.7822 17.1035 21.4766 16.8232L20.3965 16.5908C18.3936 16.167 17.5322 15.2373 17.5322 13.7812V13.7744C17.5391 12.0723 19.0156 10.8965 21.1074 10.8965C23.1992 10.8965 24.5664 12.0791 24.6758 13.6104L24.6826 13.7061H23.1992L23.1855 13.6172C23.0557 12.8105 22.2832 12.2227 21.0869 12.2295C19.9316 12.2295 19.0771 12.7695 19.0771 13.6992V13.7061C19.0771 14.4375 19.5967 14.916 20.875 15.1895L21.9482 15.4287C24.0195 15.873 24.8672 16.707 24.8672 18.1699V18.1768C24.8672 20.0635 23.3975 21.2393 21.1006 21.2393Z" fill="white"/>
</svg>
