<svg width="32" height="32" viewBox="0 0 32 32" fill="none" xmlns="http://www.w3.org/2000/svg">
<path d="M25.5651 23.4439C25.8469 23.7256 26.0052 24.1078 26.0052 24.5064C26.0052 24.9049 25.8469 25.2871 25.5651 25.5689C25.2833 25.8506 24.9011 26.009 24.5026 26.009C24.1041 26.009 23.7219 25.8506 23.4401 25.5689L15.5039 17.6301L7.5651 25.5664C7.28331 25.8481 6.90112 26.0065 6.5026 26.0065C6.10409 26.0065 5.72189 25.8481 5.4401 25.5664C5.15831 25.2846 5 24.9024 5 24.5039C5 24.1053 5.15831 23.7231 5.4401 23.4414L13.3789 15.5051L5.4426 7.56635C5.16081 7.28456 5.0025 6.90237 5.0025 6.50385C5.0025 6.10534 5.16081 5.72314 5.4426 5.44135C5.72439 5.15956 6.10659 5.00125 6.5051 5.00125C6.90362 5.00125 7.28581 5.15956 7.5676 5.44135L15.5039 13.3801L23.4426 5.4401C23.7244 5.15831 24.1066 5 24.5051 5C24.9036 5 25.2858 5.15831 25.5676 5.4401C25.8494 5.72189 26.0077 6.10409 26.0077 6.5026C26.0077 6.90112 25.8494 7.28331 25.5676 7.5651L17.6289 15.5051L25.5651 23.4439Z" fill="#6B7280"/>
</svg>
