<svg width="18" height="18" viewBox="0 0 18 18" fill="none" xmlns="http://www.w3.org/2000/svg">
<path d="M14.625 2.53125H3.375C3.00204 2.53125 2.64435 2.67941 2.38063 2.94313C2.11691 3.20685 1.96875 3.56454 1.96875 3.9375V14.0625C1.96875 14.4355 2.11691 14.7931 2.38063 15.0569C2.64435 15.3206 3.00204 15.4688 3.375 15.4688H14.625C14.998 15.4688 15.3556 15.3206 15.6194 15.0569C15.8831 14.7931 16.0312 14.4355 16.0312 14.0625V3.9375C16.0312 3.56454 15.8831 3.20685 15.6194 2.94313C15.3556 2.67941 14.998 2.53125 14.625 2.53125ZM14.3438 4.21875V8.15625H3.65625V4.21875H14.3438ZM3.65625 13.7812V9.84375H14.3438V13.7812H3.65625ZM11.25 6.1875C11.25 5.965 11.316 5.74749 11.4396 5.56248C11.5632 5.37748 11.7389 5.23328 11.9445 5.14814C12.15 5.06299 12.3762 5.04071 12.5945 5.08412C12.8127 5.12752 13.0132 5.23467 13.1705 5.392C13.3278 5.54934 13.435 5.74979 13.4784 5.96802C13.5218 6.18625 13.4995 6.41245 13.4144 6.61802C13.3292 6.82359 13.185 6.99929 13 7.1229C12.815 7.24652 12.5975 7.3125 12.375 7.3125C12.0766 7.3125 11.7905 7.19397 11.5795 6.983C11.3685 6.77202 11.25 6.48587 11.25 6.1875ZM13.5 11.8125C13.5 12.035 13.434 12.2525 13.3104 12.4375C13.1868 12.6225 13.0111 12.7667 12.8055 12.8519C12.6 12.937 12.3738 12.9593 12.1555 12.9159C11.9373 12.8725 11.7368 12.7653 11.5795 12.608C11.4222 12.4507 11.315 12.2502 11.2716 12.032C11.2282 11.8137 11.2505 11.5875 11.3356 11.382C11.4208 11.1764 11.565 11.0007 11.75 10.8771C11.935 10.7535 12.1525 10.6875 12.375 10.6875C12.6734 10.6875 12.9595 10.806 13.1705 11.017C13.3815 11.228 13.5 11.5141 13.5 11.8125Z" fill="#4B5563"/>
</svg>
