<svg width="24" height="24" viewBox="0 0 24 24" fill="none" xmlns="http://www.w3.org/2000/svg">
<path d="M17.7188 17.625L19.5487 15.7959C19.7601 15.5846 19.8788 15.298 19.8788 14.9991C19.8788 14.7002 19.7601 14.4135 19.5487 14.2022C19.3374 13.9909 19.0508 13.8721 18.7519 13.8721C18.453 13.8721 18.1663 13.9909 17.955 14.2022L16.125 16.0313L13.0247 12.9375C14.2509 12.6007 15.3132 11.8303 16.0143 10.7693C16.7154 9.70836 17.0075 8.42901 16.8365 7.16891C16.6655 5.9088 16.0429 4.75361 15.0844 3.9179C14.1259 3.0822 12.8967 2.62278 11.625 2.62501H6.75C6.45163 2.62501 6.16548 2.74353 5.9545 2.95451C5.74353 3.16549 5.625 3.45164 5.625 3.75001V18C5.625 18.2984 5.74353 18.5845 5.9545 18.7955C6.16548 19.0065 6.45163 19.125 6.75 19.125C7.04837 19.125 7.33452 19.0065 7.5455 18.7955C7.75647 18.5845 7.875 18.2984 7.875 18V13.125H10.0312L14.5312 17.625L12.7012 19.4541C12.5966 19.5587 12.5136 19.683 12.457 19.8197C12.4003 19.9564 12.3712 20.103 12.3712 20.2509C12.3712 20.3989 12.4003 20.5455 12.457 20.6822C12.5136 20.8189 12.5966 20.9432 12.7012 21.0478C12.9126 21.2592 13.1992 21.3779 13.4981 21.3779C13.6461 21.3779 13.7927 21.3487 13.9294 21.2921C14.0661 21.2355 14.1904 21.1525 14.295 21.0478L16.125 19.2188L17.9541 21.0488C18.1654 21.2601 18.4521 21.3788 18.7509 21.3788C19.0498 21.3788 19.3365 21.2601 19.5478 21.0488C19.7592 20.8374 19.8779 20.5508 19.8779 20.2519C19.8779 19.953 19.7592 19.6664 19.5478 19.455L17.7188 17.625ZM7.875 4.87501H11.625C12.4206 4.87501 13.1837 5.19108 13.7463 5.75369C14.3089 6.3163 14.625 7.07936 14.625 7.87501C14.625 8.67066 14.3089 9.43372 13.7463 9.99633C13.1837 10.5589 12.4206 10.875 11.625 10.875H7.875V4.87501Z" fill="white"/>
</svg>
